<svg xmlns="http://www.w3.org/2000/svg" viewBox="0 0 380 241">
  <g fill="white">
    <path d="M168.6,69.33H13.13c-7.25,0-13.13-5.88-13.13-13.13V13.13C0,5.88,5.88,0,13.13,0h155.47c7.25,0,13.13,5.88,13.13,13.13v43.06c0,7.25-5.88,13.13-13.13,13.13ZM165.34,22.2c0-3.21-2.6-5.81-5.81-5.81h-65.11c-3.21,0-5.81,2.6-5.81,5.81v24.92c0,3.21,2.6,5.81,5.81,5.81h65.11c3.21,0,5.81-2.6,5.81-5.81v-24.92Z"/>
    <path d="M13.13,155.05h155.47c7.25,0,13.13-5.88,13.13-13.13v-43.06c0-7.25-5.88-13.13-13.13-13.13H13.13C5.88,85.72,0,91.6,0,98.85v43.06C0,149.17,5.88,155.05,13.13,155.05ZM16.39,107.93c0-3.21,2.6-5.81,5.81-5.81h65.11c3.21,0,5.81,2.6,5.81,5.81v24.92c0,3.21-2.6,5.81-5.81,5.81H22.2c-3.21,0-5.81-2.6-5.81-5.81v-24.92Z"/>
    <path d="M168.6,240.77H13.13c-7.25,0-13.13-5.88-13.13-13.13v-43.06c0-7.25,5.88-13.13,13.13-13.13h155.47c7.25,0,13.13,5.88,13.13,13.13v43.06c0,7.25-5.88,13.13-13.13,13.13ZM165.34,193.65c0-3.21-2.6-5.81-5.81-5.81h-65.11c-3.21,0-5.81,2.6-5.81,5.81v24.92c0,3.21,2.6,5.81,5.81,5.81h65.11c3.21,0,5.81-2.6,5.81-5.81v-24.92Z"/>
    <path d="M211.26,69.33h155.47c7.25,0,13.13-5.88,13.13-13.13V13.13c0-7.25-5.88-13.13-13.13-13.13h-155.47c-7.25,0-13.13,5.88-13.13,13.13v43.06c0,7.25,5.88,13.13,13.13,13.13ZM214.52,22.2c0-3.21,2.6-5.81,5.81-5.81h65.11c3.21,0,5.81,2.6,5.81,5.81v24.92c0,3.21-2.6,5.81-5.81,5.81h-65.11c-3.21,0-5.81-2.6-5.81-5.81v-24.92Z"/>
    <path d="M366.72,155.05h-155.47c-7.25,0-13.13-5.88-13.13-13.13v-43.06c0-7.25,5.88-13.13,13.13-13.13h155.47c7.25,0,13.13,5.88,13.13,13.13v43.06c0,7.25-5.88,13.13-13.13,13.13ZM363.47,107.93c0-3.21-2.6-5.81-5.81-5.81h-65.11c-3.21,0-5.81,2.6-5.81,5.81v24.92c0,3.21,2.6,5.81,5.81,5.81h65.11c3.21,0,5.81-2.6,5.81-5.81v-24.92Z"/>
    <path d="M211.26,240.77h155.47c7.25,0,13.13-5.88,13.13-13.13v-43.06c0-7.25-5.88-13.13-13.13-13.13h-155.47c-7.25,0-13.13,5.88-13.13,13.13v43.06c0,7.25,5.88,13.13,13.13,13.13ZM214.52,193.65c0-3.21,2.6-5.81,5.81-5.81h65.11c3.21,0,5.81,2.6,5.81,5.81v24.92c0,3.21-2.6,5.81-5.81,5.81h-65.11c-3.21,0-5.81-2.6-5.81-5.81v-24.92Z"/>
  </g>
</svg>