<svg xmlns="http://www.w3.org/2000/svg" width="222" height="186" viewBox="0 0 222 186" fill="none">
    <path d="M15.9981 83.1615H205.39C214.229 83.1615 221.388 76.104 221.388 67.408V15.7535C221.388 7.04915 214.221 0 205.39 0H15.9981C7.15861 0 0 7.05755 0 15.7535V67.408C0 76.1124 7.16714 83.1615 15.9981 83.1615ZM19.9656 26.6339C19.9656 22.7858 23.1396 19.6603 27.0474 19.6603H106.364C110.272 19.6603 113.446 22.7858 113.446 26.6339V56.5276C113.446 60.3757 110.28 63.5012 106.364 63.5012H27.0474C23.1396 63.5012 19.9656 60.3757 19.9656 56.5276V26.6339Z" fill="currentColor"/>
    <path d="M205.39 186H15.9981C7.15861 186 0 178.943 0 170.247V118.592C0 109.888 7.16714 102.839 15.9981 102.839H205.39C214.229 102.839 221.388 109.896 221.388 118.592V170.247C221.388 178.951 214.221 186 205.39 186ZM201.422 129.464C201.422 125.616 198.248 122.491 194.34 122.491H115.024C111.116 122.491 107.942 125.616 107.942 129.464V159.358C107.942 163.206 111.108 166.332 115.024 166.332H194.34C198.248 166.332 201.422 163.206 201.422 159.358V129.464Z" fill="currentColor"/>
</svg>