<svg xmlns="http://www.w3.org/2000/svg" viewBox="0 0 1000 1000">
  <style>
    .toggle { fill: #000; }
    @media (prefers-color-scheme: dark) {
      .toggle { fill: #fff; }
    }
  </style>
  <g class="toggle" transform="translate(500, 525) scale(0.92) translate(-430.3, -367.12)">
    <path d="M62.2,328.31h736.21c34.35,0,62.19-27.85,62.19-62.2V62.2c0-34.35-27.85-62.2-62.19-62.2H62.2C27.85,0,0,27.85,0,62.2v203.91c0,34.35,27.85,62.2,62.2,62.2ZM77.62,105.15c0-15.2,12.32-27.52,27.52-27.52h308.34c15.2,0,27.52,12.32,27.52,27.52v118c0,15.2-12.32,27.52-27.52,27.52H105.14c-15.2,0-27.52-12.32-27.52-27.52v-118Z"/>
    <path d="M798.41,734.24H62.19c-34.35,0-62.19-27.85-62.19-62.2v-203.91c0-34.35,27.85-62.2,62.19-62.2h736.21c34.35,0,62.2,27.85,62.2,62.2v203.91c0,34.35-27.85,62.2-62.2,62.2ZM782.98,511.09c0-15.2-12.32-27.52-27.52-27.52h-308.34c-15.2,0-27.52,12.32-27.52,27.52v118c0,15.2,12.32,27.52,27.52,27.52h308.34c15.2,0,27.52-12.32,27.52-27.52v-118Z"/>
  </g>
</svg>